PathFileType	4	(X/Y/Z)	/Users/itak/Documents/Research/Walk-IL/dataset/trc/00488_00167.trc
DataRate	CameraRate	NumFrames	NumMarkers	Units	OrigDataRate	OrigDataStartFrame	OrigNumFrames
100.000000	100.000000	4	53	mm	100.000000	273	546
Frame#	Time	RPSI			LPSI			L3			STRN			T10			C7			CLAV			RBAK			LBAK			LSHO			LUPA			LAEL			LAOL			LWTS			LWPS			LFRA			LIFD			LHPS			LHTS			RSHO			RUPA			RAEL			RAOL			RWTS			RWPS			RFRA			RIFD			RHTS			RHPS			RBHD			LFHD			RFHD			LBHD			LHIP			RHIP			RASI			LASI			LKNE			LTHI			LANK			LTIP			LTOE			LMT1			LMT5			LHEE			RKNE			RTHI			RANK			RTIP			RTOE			RMT1			RMT5			RHEE			
		X1	Y1	Z1	X2	Y2	Z2	X3	Y3	Z3	X4	Y4	Z4	X5	Y5	Z5	X6	Y6	Z6	X7	Y7	Z7	X8	Y8	Z8	X9	Y9	Z9	X10	Y10	Z10	X11	Y11	Z11	X12	Y12	Z12	X13	Y13	Z13	X14	Y14	Z14	X15	Y15	Z15	X16	Y16	Z16	X17	Y17	Z17	X18	Y18	Z18	X19	Y19	Z19	X20	Y20	Z20	X21	Y21	Z21	X22	Y22	Z22	X23	Y23	Z23	X24	Y24	Z24	X25	Y25	Z25	X26	Y26	Z26	X27	Y27	Z27	X28	Y28	Z28	X29	Y29	Z29	X30	Y30	Z30	X31	Y31	Z31	X32	Y32	Z32	X33	Y33	Z33	X34	Y34	Z34	X35	Y35	Z35	X36	Y36	Z36	X37	Y37	Z37	X38	Y38	Z38	X39	Y39	Z39	X40	Y40	Z40	X41	Y41	Z41	X42	Y42	Z42	X43	Y43	Z43	X44	Y44	Z44	X45	Y45	Z45	X46	Y46	Z46	X47	Y47	Z47	X48	Y48	Z48	X49	Y49	Z49	X50	Y50	Z50	X51	Y51	Z51	X52	Y52	Z52	X53	Y53	Z53	

274	2.73	-361.3838195800781	940.1826171875	361.6660461425781	-322.0422973632812	914.1942749023438	227.1663055419922	-329.7563171386719	1019.8369140625	309.9144592285156	-57.00064468383789	1219.419189453125	327.4560852050781	-342.9707946777344	1144.032348632812	294.852294921875	-279.3468017578125	1415.178344726562	295.7743835449219	-93.49075317382812	1330.066040039062	305.9021301269531	-350.9520263671875	1301.803833007812	389.8441467285156	-302.2956237792969	1356.573608398438	197.4803771972656	-194.2005767822266	1372.647094726562	126.9635620117188	-195.6938323974609	1246.54052734375	38.57455062866211	-171.7865905761719	1029.663452148438	22.32939529418945	-256.8514099121094	1018.755004882812	82.4759521484375	-91.88970184326172	834.9146728515625	96.31890869140625	-128.5728454589844	813.4700927734375	35.58053588867188	-147.3279876708984	942.184814453125	23.46917533874512	-87.73710632324219	672.6448974609375	108.2380142211914	-118.8757934570312	736.0720825195312	45.43412399291992	-72.90493774414062	748.7900390625	99.59901428222656	-227.0383758544922	1395.595703125	461.6206665039062	-253.004638671875	1340.999877929688	538.9559936523438	-248.3930053710938	1067.575317382812	637.1507568359375	-291.9973754882812	1039.814208984375	593.4801635742188	-119.8001022338867	871.9990844726562	628.6123657226562	-188.5965576171875	856.8333129882812	681.7002563476562	-239.35986328125	1011.117248535156	654.8699951171875	-98.96901702880859	720.3927612304688	658.3545532226562	-93.63359069824219	780.6571044921875	654.8930053710938	-160.6933898925781	772.746826171875	692.1604614257812	-134.4304962158203	1623.444091796875	357.5003662109375	-95.38874816894531	1603.837768554688	155.4782104492188	-30.28352928161621	1620.753051757812	267.6859130859375	-237.0303497314453	1606.98291015625	213.2329864501953	-151.0318603515625	809.3387451171875	167.8056030273438	-301.9351806640625	845.4005737304688	535.553466796875	-178.3349304199219	876.0918579101562	504.2180480957031	-89.7322998046875	860.3731689453125	268.9538269042969	-5.069989204406738	427.1173400878906	272.6736145019531	-29.7506217956543	574.3375854492188	223.744873046875	-32.05228424072266	31.53625297546387	385.1462707519531	2.926030158996582	274.5811462402344	292.0509643554688	207.3852233886719	44.37520217895508	354.8783569335938	150.0646362304688	47.27017974853516	412.4174499511719	100.1665725708008	44.45513534545898	312.4161376953125	-45.83405303955078	42.4617919921875	462.3528442382812	-333.1414794921875	455.5342712402344	508.7100830078125	-278.3099670410156	706.8515625	550.005126953125	-601.2706909179688	96.47322082519531	378.0562133789062	-415.3181762695312	334.4306640625	486.9042053222656	-398.0080871582031	40.53800582885742	387.4881286621094	-436.3601379394531	67.07804870605469	351.7180786132812	-504.9635925292969	35.19503784179688	429.2294006347656	-629.177490234375	147.9617614746094	322.3605041503906	
275	2.74	-352.1231384277344	941.5405883789062	364.18212890625	-314.3841552734375	915.7822875976562	229.1790313720703	-321.0484008789062	1021.628967285156	311.34619140625	-47.43096923828125	1220.997802734375	324.9811401367188	-334.3310852050781	1145.590576171875	295.8932800292969	-270.247314453125	1416.567504882812	295.1568603515625	-84.20894622802734	1331.552856445312	303.6016540527344	-340.8702087402344	1303.738037109375	390.2619018554688	-294.1206665039062	1357.680419921875	197.1804962158203	-186.6829986572266	1373.608642578125	125.6575317382812	-188.6344757080078	1247.454467773438	37.41106796264648	-165.3299255371094	1030.58056640625	21.29267692565918	-249.9649505615234	1019.985046386719	82.19754791259766	-86.79652404785156	834.34814453125	93.13855743408203	-124.4657821655273	813.8911743164062	32.70615768432617	-141.787353515625	942.8863525390625	21.66895484924316	-84.99774169921875	671.854248046875	103.7221603393555	-115.8839569091797	736.2700805664062	41.84634780883789	-69.00968933105469	747.8040161132812	95.58683013916016	-216.131591796875	1397.564208984375	460.5499267578125	-241.5780792236328	1343.013061523438	538.09033203125	-238.7393493652344	1068.434692382812	633.8458251953125	-282.7855224609375	1041.728271484375	589.9451293945312	-114.1893081665039	869.8995971679688	622.898681640625	-182.7341766357422	855.9410400390625	676.5492553710938	-230.6525421142578	1011.681762695312	651.0947875976562	-97.41745758056641	717.35546875	650.2025756835938	-90.37745666503906	777.4568481445312	647.4849243164062	-157.1540985107422	770.94091796875	685.3986206054688	-124.0832138061523	1624.662353515625	354.7212524414062	-87.49223327636719	1604.576904296875	152.2982635498047	-21.07265663146973	1621.539916992188	263.6788024902344	-228.4702758789062	1608.1328125	211.76708984375	-143.6255645751953	810.7835083007812	167.5679779052734	-289.9091186523438	846.973876953125	537.28076171875	-166.8978271484375	877.9662475585938	503.9217834472656	-81.34799957275391	862.2727661132812	267.6744384765625	1.080989837646484	427.968017578125	273.7758483886719	-22.47385406494141	575.4965209960938	224.7254180908203	-31.43564605712891	32.02276229858398	385.1709594726562	7.555264472961426	274.9609680175781	292.8412475585938	208.9074401855469	42.4541130065918	355.6284484863281	150.8369445800781	46.70413208007812	413.2435913085938	101.5178604125977	44.49800491333008	312.9300231933594	-45.63437652587891	42.63865661621094	462.4357299804688	-319.5967712402344	457.3840942382812	518.6978149414062	-265.9284362792969	709.0845947265625	553.908447265625	-596.9478149414062	103.1758499145508	386.5836181640625	-404.2973327636719	337.9410705566406	497.7902221679688	-397.7555236816406	40.04495239257812	388.0351867675781	-434.5884094238281	68.90656280517578	355.4010314941406	-503.0333251953125	34.64219284057617	431.7605590820312	-622.6118774414062	158.8012084960938	334.0718688964844	
276	2.75	-342.91845703125	942.77392578125	366.2206115722656	-306.5953369140625	917.2536010742188	230.7420349121094	-312.3914489746094	1023.364501953125	312.5657043457031	-38.04768371582031	1222.586791992188	322.3987731933594	-325.7453308105469	1147.191772460938	296.8849182128906	-261.3423767089844	1417.998779296875	294.6536254882812	-75.09877014160156	1333.080932617188	301.2587585449219	-330.890380859375	1305.68798828125	390.8105163574219	-286.199462890625	1358.819213867188	197.0203247070312	-179.4896087646484	1374.63525390625	124.4108657836914	-181.9487762451172	1248.487426757812	36.26479339599609	-159.0897827148438	1031.638671875	20.15037155151367	-243.2674713134766	1021.268432617188	81.81973266601562	-81.67792510986328	834.0401611328125	89.84666442871094	-120.3524627685547	814.52734375	29.75058937072754	-136.3778228759766	943.7659912109375	19.76745796203613	-82.18568420410156	671.3340454101562	99.11551666259766	-112.8255081176758	736.7183227539062	38.18690872192383	-65.08879852294922	747.0862426757812	91.47086334228516	-205.2961273193359	1399.561401367188	459.5111083984375	-230.1328887939453	1345.094970703125	537.3023071289062	-228.962158203125	1069.401245117188	630.6871948242188	-273.5192260742188	1043.760009765625	586.6714477539062	-108.5611114501953	867.9913330078125	617.0931396484375	-176.6759948730469	855.2227172851562	671.496826171875	-221.7572021484375	1012.383972167969	647.4559326171875	-95.97769927978516	714.5872802734375	641.7103271484375	-87.18849182128906	774.4752807617188	639.77783203125	-153.5252990722656	769.3222045898438	678.5170288085938	-113.8540649414062	1625.931762695312	351.8437805175781	-79.84507751464844	1605.258911132812	149.0435485839844	-12.0336389541626	1622.27392578125	259.5364379882812	-220.0842895507812	1609.331176757812	210.2755737304688	-136.0980682373047	812.0336303710938	167.0909729003906	-278.0401306152344	848.67236328125	538.7269897460938	-155.5878448486328	879.9393920898438	503.3853759765625	-72.91397857666016	863.9249877929688	266.1819458007812	6.617543697357178	428.4709777832031	274.7413330078125	-15.90946197509766	576.069580078125	225.3909454345703	-30.9527702331543	32.43259429931641	385.2166442871094	11.69832611083984	275.149169921875	293.56005859375	210.1332397460938	40.88019180297852	356.3702392578125	151.4394378662109	46.20729446411133	413.9906311035156	102.6340103149414	44.53068923950195	313.4029235839844	-45.50031661987305	42.73773574829102	462.5423278808594	-305.4832458496094	459.4201965332031	529.0829467773438	-253.55859375	711.5563354492188	557.8099365234375	-591.659423828125	110.5023422241211	396.5914306640625	-392.2102966308594	341.2962341308594	509.3382568359375	-397.2409362792969	39.29157638549805	388.81494140625	-432.5488586425781	71.02049255371094	359.6148376464844	-500.51708984375	34.33535003662109	435.0562438964844	-615.156494140625	169.8935089111328	347.3893737792969	
277	2.76	-333.8324279785156	943.814208984375	367.7642517089844	-298.701416015625	918.6339721679688	231.8270568847656	-303.7871398925781	1024.999877929688	313.5535888671875	-28.88408470153809	1224.141845703125	319.7526245117188	-317.2080383300781	1148.805908203125	297.8309936523438	-252.6446533203125	1419.455688476562	294.2825622558594	-66.20022583007812	1334.607788085938	298.8983764648438	-321.0342712402344	1307.615844726562	391.489990234375	-278.5513610839844	1359.974243164062	197.0148468017578	-172.6432037353516	1375.698608398438	123.2521591186523	-175.6963043212891	1249.607666015625	35.1625862121582	-153.1305236816406	1032.80908203125	18.89799118041992	-236.8000640869141	1022.569274902344	81.35185241699219	-76.54534149169922	833.9928588867188	86.46221160888672	-116.2328643798828	815.35595703125	26.73518943786621	-131.1361541748047	944.7947387695312	17.76937484741211	-79.208740234375	671.09814453125	94.47989654541016	-109.6554107666016	737.3941650390625	34.49687957763672	-61.10013198852539	746.6572265625	87.28580474853516	-194.5596771240234	1401.54541015625	458.5281982421875	-218.7071228027344	1347.18408203125	536.6083374023438	-219.0270690917969	1070.429443359375	627.7135009765625	-264.26171875	1045.869384765625	583.776123046875	-102.8650360107422	866.2799682617188	611.2567138671875	-170.3784484863281	854.6533203125	666.5896606445312	-212.6314697265625	1013.182434082031	643.9971313476562	-94.51678466796875	712.1112670898438	633.010009765625	-83.98756408691406	771.7427368164062	631.8746948242188	-149.7377471923828	767.885498046875	671.604248046875	-103.7696304321289	1627.23974609375	348.8824768066406	-72.49784851074219	1605.865112304688	145.7358093261719	-3.201400995254517	1622.948852539062	255.2692260742188	-211.9098358154297	1610.556762695312	208.7881927490234	-128.5213928222656	813.114013671875	166.4239654541016	-266.4359130859375	850.4376831054688	539.9039306640625	-144.5008544921875	881.9663696289062	502.7026672363281	-64.48590850830078	865.2841796875	264.5756530761719	11.52726745605469	428.6482543945312	275.4469604492188	-10.03978061676025	576.1165771484375	225.6821441650391	-30.59625053405762	32.76237106323242	385.2641296386719	15.28383636474609	275.1550598144531	294.1003112792969	211.0753784179688	39.6642951965332	357.0643920898438	151.8842468261719	45.78167343139648	414.6137084960938	103.501335144043	44.53759384155273	313.7970275878906	-45.40399932861328	42.79310989379883	462.6445617675781	-290.7639465332031	461.5985717773438	539.5918579101562	-241.2260894775391	714.18798828125	561.6322631835938	-585.33447265625	118.4217910766602	408.1092224121094	-378.9886779785156	344.4010314941406	521.2570190429688	-396.4883422851562	38.27067947387695	389.9314880371094	-430.1879272460938	73.46499633789062	364.4111328125	-497.3493957519531	34.45631408691406	439.24951171875	-606.8563842773438	181.1110687255859	362.2117614746094	
